<svg xmlns="http://www.w3.org/2000/svg" xmlns:xlink="http://www.w3.org/1999/xlink" zoomAndPan="magnify" preserveAspectRatio="xMidYMid meet" version="1.0" viewBox="95.99 171.73 180.37 22.42"><defs><g/><clipPath id="1ff88520eb"><path d="M 110 172.03125 L 124.488281 172.03125 L 124.488281 194.53125 L 110 194.53125 Z M 110 172.03125 " clip-rule="nonzero"/></clipPath><clipPath id="f527c0935b"><path d="M 95.988281 172.03125 L 110 172.03125 L 110 194.53125 L 95.988281 194.53125 Z M 95.988281 172.03125 " clip-rule="nonzero"/></clipPath></defs><g clip-path="url(#1ff88520eb)"><path fill="#facc15" d="M 122.53125 174.144531 C 121.335938 172.886719 119.824219 172.203125 118 172.117188 C 117.6875 172.0625 117.34375 172.03125 116.972656 172.03125 C 115.007812 172.03125 113.292969 172.941406 112.15625 174.371094 C 111.53125 175.082031 111.160156 175.882812 110.988281 176.792969 C 110.871094 177.25 110.816406 177.703125 110.816406 178.160156 C 110.816406 181.550781 113.550781 184.289062 116.945312 184.289062 C 118.3125 184.289062 119.59375 183.832031 120.621094 183.0625 C 120.621094 183.148438 120.621094 183.203125 120.621094 183.289062 C 120.621094 186.539062 118.144531 189.789062 113.183594 193.039062 L 113.898438 194.148438 C 120.933594 189.789062 124.441406 185 124.441406 179.789062 C 124.5 177.390625 123.84375 175.511719 122.53125 174.144531 Z M 122.53125 174.144531 " fill-opacity="1" fill-rule="nonzero"/></g><g clip-path="url(#f527c0935b)"><path fill="#facc15" d="M 103.121094 172.117188 C 102.777344 172.0625 102.460938 172.03125 102.121094 172.03125 C 98.726562 172.03125 95.992188 174.765625 95.992188 178.160156 C 95.992188 181.550781 98.726562 184.292969 102.121094 184.292969 C 103.546875 184.292969 104.828125 183.808594 105.886719 183.007812 C 105.886719 183.09375 105.914062 183.210938 105.914062 183.296875 C 105.914062 186.546875 103.4375 189.792969 98.476562 193.046875 L 99.1875 194.15625 C 106.226562 189.789062 109.730469 185 109.730469 179.789062 C 109.730469 177.394531 109.078125 175.511719 107.765625 174.144531 C 106.539062 172.855469 104.972656 172.171875 103.121094 172.117188 Z M 103.121094 172.117188 " fill-opacity="1" fill-rule="nonzero"/></g><g fill="#ffffff" fill-opacity="1"><g transform="translate(136.140977, 193.124987)"><g><path d="M 5.328125 0 L 5.328125 -18.90625 L 0 -18.90625 L 0 -21.390625 L 13.765625 -21.390625 L 13.765625 -18.90625 L 8.4375 -18.90625 L 8.4375 0 Z M 5.328125 0 "/></g></g></g><g fill="#ffffff" fill-opacity="1"><g transform="translate(149.314316, 193.124987)"><g><path d="M 9.796875 -10.328125 C 9.796875 -11.109375 9.539062 -11.734375 9.03125 -12.203125 C 8.53125 -12.679688 7.882812 -12.921875 7.09375 -12.921875 C 6.5 -12.921875 5.957031 -12.773438 5.46875 -12.484375 C 4.988281 -12.203125 4.625 -11.78125 4.375 -11.21875 C 4.226562 -10.882812 4.15625 -10.585938 4.15625 -10.328125 Z M 12.25 -0.15625 C 11.625 -0.0078125 11.007812 0.109375 10.40625 0.203125 C 9.8125 0.296875 9.195312 0.34375 8.5625 0.34375 C 7.238281 0.34375 6.113281 0.128906 5.1875 -0.296875 C 4.269531 -0.722656 3.515625 -1.3125 2.921875 -2.0625 C 2.335938 -2.8125 1.910156 -3.695312 1.640625 -4.71875 C 1.367188 -5.75 1.234375 -6.875 1.234375 -8.09375 C 1.234375 -9.101562 1.347656 -10.035156 1.578125 -10.890625 C 1.804688 -11.753906 2.160156 -12.492188 2.640625 -13.109375 C 3.128906 -13.734375 3.753906 -14.21875 4.515625 -14.5625 C 5.285156 -14.914062 6.195312 -15.09375 7.25 -15.09375 C 8.144531 -15.09375 8.925781 -14.941406 9.59375 -14.640625 C 10.269531 -14.347656 10.828125 -13.9375 11.265625 -13.40625 C 11.710938 -12.875 12.046875 -12.25 12.265625 -11.53125 C 12.484375 -10.8125 12.59375 -10.023438 12.59375 -9.171875 L 12.59375 -8.46875 L 4.03125 -8.46875 C 4.03125 -7.632812 4.140625 -6.820312 4.359375 -6.03125 C 4.578125 -5.238281 4.90625 -4.53125 5.34375 -3.90625 C 5.789062 -3.28125 6.351562 -2.773438 7.03125 -2.390625 C 7.71875 -2.015625 8.523438 -1.828125 9.453125 -1.828125 C 9.953125 -1.828125 10.425781 -1.875 10.875 -1.96875 C 11.332031 -2.0625 11.789062 -2.191406 12.25 -2.359375 Z M 12.25 -0.15625 "/></g></g></g><g fill="#ffffff" fill-opacity="1"><g transform="translate(163.076602, 193.124987)"><g><path d="M 1.140625 -2.703125 C 1.679688 -2.453125 2.296875 -2.242188 2.984375 -2.078125 C 3.679688 -1.910156 4.304688 -1.828125 4.859375 -1.828125 C 5.171875 -1.828125 5.503906 -1.851562 5.859375 -1.90625 C 6.210938 -1.957031 6.535156 -2.050781 6.828125 -2.1875 C 7.128906 -2.320312 7.378906 -2.507812 7.578125 -2.75 C 7.773438 -3 7.875 -3.320312 7.875 -3.71875 C 7.875 -4.132812 7.707031 -4.5 7.375 -4.8125 C 7.039062 -5.132812 6.625 -5.453125 6.125 -5.765625 C 5.632812 -6.078125 5.09375 -6.382812 4.5 -6.6875 C 3.914062 -7 3.375 -7.359375 2.875 -7.765625 C 2.382812 -8.171875 1.972656 -8.628906 1.640625 -9.140625 C 1.304688 -9.660156 1.140625 -10.269531 1.140625 -10.96875 C 1.140625 -11.71875 1.289062 -12.347656 1.59375 -12.859375 C 1.894531 -13.378906 2.289062 -13.800781 2.78125 -14.125 C 3.28125 -14.457031 3.835938 -14.703125 4.453125 -14.859375 C 5.078125 -15.015625 5.722656 -15.09375 6.390625 -15.09375 C 6.984375 -15.09375 7.539062 -15.035156 8.0625 -14.921875 C 8.59375 -14.804688 9.148438 -14.6875 9.734375 -14.5625 L 9.734375 -12.0625 C 9.191406 -12.3125 8.640625 -12.515625 8.078125 -12.671875 C 7.523438 -12.835938 6.953125 -12.921875 6.359375 -12.921875 C 6.128906 -12.921875 5.875 -12.890625 5.59375 -12.828125 C 5.3125 -12.765625 5.046875 -12.671875 4.796875 -12.546875 C 4.554688 -12.429688 4.351562 -12.269531 4.1875 -12.0625 C 4.019531 -11.851562 3.9375 -11.613281 3.9375 -11.34375 C 3.9375 -10.945312 4.097656 -10.59375 4.421875 -10.28125 C 4.753906 -9.976562 5.171875 -9.679688 5.671875 -9.390625 C 6.171875 -9.097656 6.710938 -8.796875 7.296875 -8.484375 C 7.890625 -8.179688 8.429688 -7.832031 8.921875 -7.4375 C 9.421875 -7.039062 9.832031 -6.570312 10.15625 -6.03125 C 10.488281 -5.5 10.65625 -4.863281 10.65625 -4.125 C 10.65625 -3.28125 10.503906 -2.570312 10.203125 -2 C 9.910156 -1.425781 9.507812 -0.960938 9 -0.609375 C 8.5 -0.265625 7.910156 -0.0195312 7.234375 0.125 C 6.566406 0.269531 5.859375 0.34375 5.109375 0.34375 C 4.429688 0.34375 3.765625 0.289062 3.109375 0.1875 C 2.460938 0.0820312 1.804688 -0.0625 1.140625 -0.25 Z M 1.140625 -2.703125 "/></g></g></g><g fill="#ffffff" fill-opacity="1"><g transform="translate(174.545172, 193.124987)"><g><path d="M 10.140625 0.125 C 9.785156 0.207031 9.421875 0.265625 9.046875 0.296875 C 8.679688 0.328125 8.3125 0.34375 7.9375 0.34375 C 7.269531 0.34375 6.664062 0.285156 6.125 0.171875 C 5.59375 0.0546875 5.128906 -0.132812 4.734375 -0.40625 C 4.347656 -0.675781 4.046875 -1.039062 3.828125 -1.5 C 3.609375 -1.96875 3.5 -2.550781 3.5 -3.25 L 3.5 -12.59375 L 0.875 -12.59375 L 0.875 -14.75 L 3.5 -14.75 L 3.5 -18.234375 L 6.296875 -19.96875 L 6.296875 -14.75 L 10.390625 -14.75 L 10.390625 -12.59375 L 6.296875 -12.59375 L 6.296875 -4.71875 C 6.296875 -3.882812 6.441406 -3.191406 6.734375 -2.640625 C 7.035156 -2.097656 7.675781 -1.828125 8.65625 -1.828125 C 8.894531 -1.828125 9.144531 -1.84375 9.40625 -1.875 C 9.664062 -1.90625 9.910156 -1.960938 10.140625 -2.046875 Z M 10.140625 0.125 "/></g></g></g><g fill="#ffffff" fill-opacity="1"><g transform="translate(185.45582, 193.124987)"><g><path d="M 2.609375 0 L 2.609375 -14.75 L 5.390625 -14.75 L 5.390625 0 Z M 2.328125 -18.234375 L 2.328125 -21.390625 L 5.671875 -21.390625 L 5.671875 -18.234375 Z M 2.328125 -18.234375 "/></g></g></g><g fill="#ffffff" fill-opacity="1"><g transform="translate(193.483815, 193.124987)"><g><path d="M 18.5 0 L 18.5 -8.0625 C 18.5 -8.332031 18.5 -8.609375 18.5 -8.890625 C 18.5 -9.179688 18.488281 -9.472656 18.46875 -9.765625 C 18.445312 -10.117188 18.410156 -10.445312 18.359375 -10.75 C 18.316406 -11.0625 18.222656 -11.332031 18.078125 -11.5625 C 17.929688 -11.789062 17.734375 -11.972656 17.484375 -12.109375 C 17.234375 -12.242188 16.894531 -12.3125 16.46875 -12.3125 C 15.925781 -12.3125 15.445312 -12.113281 15.03125 -11.71875 C 14.625 -11.320312 14.285156 -10.847656 14.015625 -10.296875 C 13.742188 -9.753906 13.539062 -9.179688 13.40625 -8.578125 C 13.269531 -7.984375 13.203125 -7.476562 13.203125 -7.0625 L 13.203125 0 L 10.421875 0 L 10.421875 -8.0625 C 10.421875 -8.332031 10.421875 -8.609375 10.421875 -8.890625 C 10.421875 -9.179688 10.410156 -9.472656 10.390625 -9.765625 C 10.367188 -10.097656 10.332031 -10.414062 10.28125 -10.71875 C 10.226562 -11.03125 10.140625 -11.304688 10.015625 -11.546875 C 9.890625 -11.785156 9.703125 -11.972656 9.453125 -12.109375 C 9.203125 -12.242188 8.875 -12.3125 8.46875 -12.3125 C 7.84375 -12.3125 7.316406 -12.082031 6.890625 -11.625 C 6.472656 -11.164062 6.132812 -10.613281 5.875 -9.96875 C 5.613281 -9.332031 5.421875 -8.664062 5.296875 -7.96875 C 5.171875 -7.28125 5.109375 -6.710938 5.109375 -6.265625 L 5.109375 0 L 2.328125 0 L 2.328125 -14.75 L 5.109375 -14.75 L 5.109375 -11.8125 L 5.171875 -11.8125 C 5.503906 -12.738281 6.003906 -13.515625 6.671875 -14.140625 C 7.347656 -14.773438 8.222656 -15.09375 9.296875 -15.09375 C 10.304688 -15.09375 11.144531 -14.820312 11.8125 -14.28125 C 12.488281 -13.75 12.898438 -12.976562 13.046875 -11.96875 L 13.109375 -11.96875 C 13.484375 -12.894531 14.019531 -13.644531 14.71875 -14.21875 C 15.425781 -14.800781 16.285156 -15.09375 17.296875 -15.09375 C 18.035156 -15.09375 18.660156 -14.957031 19.171875 -14.6875 C 19.679688 -14.425781 20.09375 -14.070312 20.40625 -13.625 C 20.726562 -13.175781 20.957031 -12.65625 21.09375 -12.0625 C 21.226562 -11.476562 21.296875 -10.867188 21.296875 -10.234375 L 21.296875 0 Z M 18.5 0 "/></g></g></g><g fill="#ffffff" fill-opacity="1"><g transform="translate(217.009891, 193.124987)"><g><path d="M 7.78125 -1.828125 C 8.539062 -1.828125 9.144531 -2.003906 9.59375 -2.359375 C 10.039062 -2.722656 10.378906 -3.179688 10.609375 -3.734375 C 10.847656 -4.285156 11.003906 -4.882812 11.078125 -5.53125 C 11.148438 -6.1875 11.1875 -6.800781 11.1875 -7.375 C 11.1875 -7.957031 11.148438 -8.570312 11.078125 -9.21875 C 11.003906 -9.875 10.851562 -10.472656 10.625 -11.015625 C 10.40625 -11.566406 10.066406 -12.019531 9.609375 -12.375 C 9.148438 -12.738281 8.539062 -12.921875 7.78125 -12.921875 C 7.019531 -12.921875 6.410156 -12.742188 5.953125 -12.390625 C 5.492188 -12.046875 5.144531 -11.597656 4.90625 -11.046875 C 4.675781 -10.503906 4.523438 -9.90625 4.453125 -9.25 C 4.378906 -8.601562 4.34375 -7.976562 4.34375 -7.375 C 4.34375 -6.78125 4.378906 -6.15625 4.453125 -5.5 C 4.523438 -4.851562 4.675781 -4.257812 4.90625 -3.71875 C 5.144531 -3.175781 5.492188 -2.722656 5.953125 -2.359375 C 6.410156 -2.003906 7.019531 -1.828125 7.78125 -1.828125 Z M 7.78125 0.34375 C 6.601562 0.34375 5.59375 0.144531 4.75 -0.25 C 3.914062 -0.644531 3.238281 -1.191406 2.71875 -1.890625 C 2.207031 -2.585938 1.832031 -3.398438 1.59375 -4.328125 C 1.351562 -5.265625 1.234375 -6.28125 1.234375 -7.375 C 1.234375 -8.445312 1.351562 -9.453125 1.59375 -10.390625 C 1.832031 -11.335938 2.207031 -12.15625 2.71875 -12.84375 C 3.238281 -13.539062 3.914062 -14.085938 4.75 -14.484375 C 5.59375 -14.890625 6.601562 -15.09375 7.78125 -15.09375 C 8.957031 -15.09375 9.957031 -14.890625 10.78125 -14.484375 C 11.613281 -14.085938 12.285156 -13.539062 12.796875 -12.84375 C 13.316406 -12.15625 13.695312 -11.335938 13.9375 -10.390625 C 14.175781 -9.453125 14.296875 -8.445312 14.296875 -7.375 C 14.296875 -6.300781 14.175781 -5.289062 13.9375 -4.34375 C 13.695312 -3.40625 13.316406 -2.59375 12.796875 -1.90625 C 12.285156 -1.21875 11.613281 -0.671875 10.78125 -0.265625 C 9.957031 0.140625 8.957031 0.34375 7.78125 0.34375 Z M 7.78125 0.34375 "/></g></g></g><g fill="#ffffff" fill-opacity="1"><g transform="translate(232.50796, 193.124987)"><g><path d="M 11 0 L 11 -8.0625 C 11 -8.351562 11 -8.648438 11 -8.953125 C 11 -9.265625 10.988281 -9.578125 10.96875 -9.890625 C 10.925781 -10.566406 10.78125 -11.140625 10.53125 -11.609375 C 10.289062 -12.078125 9.773438 -12.3125 8.984375 -12.3125 C 8.304688 -12.3125 7.71875 -12.097656 7.21875 -11.671875 C 6.726562 -11.242188 6.328125 -10.71875 6.015625 -10.09375 C 5.703125 -9.476562 5.46875 -8.816406 5.3125 -8.109375 C 5.15625 -7.410156 5.078125 -6.796875 5.078125 -6.265625 L 5.078125 0 L 2.296875 0 L 2.296875 -14.75 L 5.078125 -14.75 L 5.078125 -11.59375 L 5.140625 -11.59375 C 5.554688 -12.644531 6.144531 -13.488281 6.90625 -14.125 C 7.675781 -14.769531 8.648438 -15.09375 9.828125 -15.09375 C 10.566406 -15.09375 11.191406 -14.957031 11.703125 -14.6875 C 12.210938 -14.425781 12.617188 -14.070312 12.921875 -13.625 C 13.234375 -13.175781 13.457031 -12.65625 13.59375 -12.0625 C 13.726562 -11.476562 13.796875 -10.867188 13.796875 -10.234375 L 13.796875 0 Z M 11 0 "/></g></g></g><g fill="#ffffff" fill-opacity="1"><g transform="translate(248.594953, 193.124987)"><g><path d="M 2.609375 0 L 2.609375 -14.75 L 5.390625 -14.75 L 5.390625 0 Z M 2.328125 -18.234375 L 2.328125 -21.390625 L 5.671875 -21.390625 L 5.671875 -18.234375 Z M 2.328125 -18.234375 "/></g></g></g><g fill="#ffffff" fill-opacity="1"><g transform="translate(256.622949, 193.124987)"><g><path d="M 9.390625 -6.609375 L 8.828125 -6.609375 C 8.398438 -6.609375 7.925781 -6.554688 7.40625 -6.453125 C 6.894531 -6.347656 6.421875 -6.179688 5.984375 -5.953125 C 5.546875 -5.722656 5.175781 -5.421875 4.875 -5.046875 C 4.582031 -4.679688 4.4375 -4.238281 4.4375 -3.71875 C 4.4375 -3.257812 4.570312 -2.828125 4.84375 -2.421875 C 5.125 -2.023438 5.523438 -1.828125 6.046875 -1.828125 C 6.523438 -1.828125 6.96875 -1.953125 7.375 -2.203125 C 7.789062 -2.453125 8.144531 -2.765625 8.4375 -3.140625 C 8.738281 -3.523438 8.972656 -3.945312 9.140625 -4.40625 C 9.304688 -4.875 9.390625 -5.328125 9.390625 -5.765625 Z M 9.390625 0 L 9.390625 -1.828125 L 9.328125 -1.828125 C 8.992188 -1.128906 8.46875 -0.59375 7.75 -0.21875 C 7.03125 0.15625 6.285156 0.34375 5.515625 0.34375 C 4.273438 0.34375 3.265625 0.00390625 2.484375 -0.671875 C 1.710938 -1.359375 1.328125 -2.34375 1.328125 -3.625 C 1.328125 -4.65625 1.59375 -5.488281 2.125 -6.125 C 2.664062 -6.769531 3.335938 -7.265625 4.140625 -7.609375 C 4.953125 -7.953125 5.828125 -8.179688 6.765625 -8.296875 C 7.710938 -8.410156 8.585938 -8.46875 9.390625 -8.46875 L 9.390625 -10.71875 C 9.390625 -11.488281 9.164062 -12.046875 8.71875 -12.390625 C 8.28125 -12.742188 7.75 -12.921875 7.125 -12.921875 C 6.40625 -12.921875 5.832031 -12.722656 5.40625 -12.328125 C 4.988281 -11.941406 4.78125 -11.382812 4.78125 -10.65625 L 1.828125 -10.65625 C 1.828125 -11.488281 1.976562 -12.179688 2.28125 -12.734375 C 2.582031 -13.296875 2.984375 -13.75 3.484375 -14.09375 C 3.992188 -14.445312 4.578125 -14.703125 5.234375 -14.859375 C 5.898438 -15.015625 6.601562 -15.09375 7.34375 -15.09375 C 10.570312 -15.09375 12.1875 -13.515625 12.1875 -10.359375 L 12.1875 0 Z M 9.390625 0 "/></g></g></g><g fill="#ffffff" fill-opacity="1"><g transform="translate(270.97416, 193.124987)"><g><path d="M 2.609375 0 L 2.609375 -21.390625 L 5.390625 -21.390625 L 5.390625 0 Z M 2.609375 0 "/></g></g></g></svg>